<svg viewBox="0 0 512 512" xmlns="http://www.w3.org/2000/svg"><defs><style>@keyframes second-floor-ani{0%,10%,80%,to{transform:translateX(-55px)}35%,55%{transform:translateX(55px)}}@keyframes third-floor-ani{0%,10%,90%,to{transform:translateX(-167px)}45.5%,55%{transform:translateX(55px)}}@keyframes whale-ani{0%,75%,to{transform:rotate(-20deg)}25%,40%{transform:rotate(20deg)}}.docker{fill:#099cec}</style></defs><g style="animation:whale-ani 5s ease-in infinite;transform-origin:50% 50%"><rect class="docker" height="43.625" width="47.506" x="229.999" y="94.975" style="animation:third-floor-ani 5s ease-in infinite"/><g style="animation:second-floor-ani 5s ease-in infinite"><rect class="docker" height="43.193" width="47.505" x="117.738" y="147.225"/><rect class="docker" height="43.193" width="47.506" x="173.869" y="147.225"/><rect class="docker" height="43.193" width="47.506" x="229.999" y="147.225"/></g><rect class="docker" height="42.691" width="47.506" x="61.68" y="199.043"/><rect class="docker" height="42.691" width="47.505" x="117.738" y="199.043"/><rect class="docker" height="42.691" width="47.506" x="173.869" y="199.043"/><rect class="docker" height="42.69" width="47.506" x="229.999" y="199.115"/><rect class="docker" height="42.691" width="47.507" x="286.2" y="199.043"/><path class="docker" d="M476.441 219.095c-10.35-6.972-34.21-9.487-52.537-6.036-2.371-17.249-12.003-32.27-29.538-45.782l-10.062-6.685-6.685 10.062c-13.225 19.98-16.817 52.896-2.658 74.602-6.252 3.377-18.545 7.978-34.786 7.689H27.757c-6.252 36.511 4.169 83.945 31.624 116.501 26.663 31.551 66.623 47.579 118.872 47.579 113.124 0 196.851-52.104 236.021-146.76 15.381.288 48.584.073 65.618-32.483 1.078-1.797 4.743-9.488 6.107-12.291l-9.558-6.396z"/></g></svg>